<svg enable-background="new 0 0 512 512" xmlns="http://www.w3.org/2000/svg" width="486" height="490" style=""><rect id="backgroundrect" width="100%" height="100%" x="0" y="0" fill="none" stroke="none" style="" class=""/><g class="currentLayer" style=""><title>Layer 1</title><path d="m361.9125863313675,246.70909118652344 c-13.300000190734863,-3.799999952316284 -25.100000381469727,-11.800000190734863 -33.400001525878906,-22.899999618530273 l-0.20000000298023224,0.10000000149011612 c-4.800000190734863,4.199999809265137 -9.800000190734863,7.900000095367432 -15.100000381469727,11.300000190734863 l-23.399999618530273,50.29999923706055 l-34.70000076293945,74.30000305175781 l26.5,13.199999809265137 l86.69999694824219,-123.9000015258789 l0.10000000149011612,-0.8999999761581421 c-2.200000047683716,-0.4000000059604645 -4.400000095367432,-0.8999999761581421 -6.5,-1.5 z" fill="#becc69" id="svg_1" class=""/><path d="m332.5125924348831,228.70909118652344 c-1.399999976158142,-1.600000023841858 -2.799999952316284,-3.200000047683716 -4.099999904632568,-4.900000095367432 l-0.20000000298023224,0.10000000149011612 c-4.699999809265137,4.099999904632568 -9.800000190734863,7.900000095367432 -15.100000381469727,11.300000190734863 l-58,122.9000015258789 l16.5,10.5 l51,-108.4000015258789 c4.300000190734863,-9.199999809265137 10.800000190734863,-17.100000381469727 18.600000381469727,-23.5 l0.10000000149011612,-0.10000000149011612 c-3.200000047683716,-2.4000000953674316 -6.099999904632568,-5 -8.800000190734863,-7.900000095367432 z" fill="#adbc55" id="svg_2" class=""/><path d="m402.4125863313675,244.90908813476562 c-10.800000190734863,4.300000190734863 -22.5,5.599999904632568 -34,3.700000047683716 l-0.10000000149011612,0.8999999761581421 l-76.19999694824219,110.19999694824219 c-5.599999904632568,8.100000381469727 -15.899999618530273,11.399999618530273 -25.100000381469727,8 c-7.300000190734863,-2.700000047683716 -12.600000381469727,-9.100000381469727 -13.899999618530273,-16.700000762939453 l-13,-78.4000015258789 l-3.5999999046325684,-20.299999237060547 c-15.399999618530273,-2.4000000953674316 -30.100000381469727,-8.199999809265137 -43.099998474121094,-16.799999237060547 l8.100000381469727,97.5 c0,22.299999237060547 -21,28.5 -31.5,9.699999809265137 c-7.900000095367432,-14.100000381469727 -30.100000381469727,-57.20000076293945 -42.70000076293945,-81.9000015258789 c-5.300000190734863,-10.300000190734863 -8.899999618530273,-17.399999618530273 -9.100000381469727,-17.799999237060547 c-10.300000190734863,0.30000001192092896 -20.600000381469727,-2.200000047683716 -29.600000381469727,-7.300000190734863 c-6,3.5 -12.600000381469727,5.900000095367432 -19.399999618530273,7 l102,215.60000610351562 c6,17.200000762939453 22.200000762939453,24.700000762939453 40.400001525878906,24.700000762939453 h64.0999984741211 c18.700000762939453,0 34.70000076293945,-8.399999618530273 40.79999923706055,-26.100000381469727 c16.5,-47.599998474121094 22,-96.0999984741211 64,-158.3000030517578 c8.5,-12.5 18.100000381469727,-25.700000762939453 29.200000762939453,-39.5 l0.30000001192092896,-0.30000001192092896 c-3.5,-4.300000190734863 -6,-9.100000381469727 -7.599999904632568,-13.899999618530273 z" fill="#cadd78" id="svg_3" class=""/><path d="m284.11259853839874,479.30908203125 h-46.099998474121094 c-18.200000762939453,0 -34.400001525878906,-11.5 -40.400001525878906,-28.700000762939453 l-111.0999984741211,-214 c-5.400000095367432,3 -11.300000190734863,5 -17.399999618530273,5.900000095367432 l104,215.60000610351562 c6,17.200000762939453 22.200000762939453,28.700000762939453 40.400001525878906,28.700000762939453 h54.099998474121094 c9.100000381469727,0 18,-3 25.299999237060547,-8.5 c-2.9000000953674316,0.699999988079071 -5.800000190734863,1 -8.800000190734863,1 z" fill="#adbc55" id="svg_4" class=""/><path d="m198.51259243488312,345.50909423828125 c9.600000381469727,2.700000047683716 19.5,-5 19.5,-20.299999237060547 l-6.699999809265137,-80.30000305175781 c-6.300000190734863,-2.700000047683716 -12.300000190734863,-5.900000095367432 -18,-9.600000381469727 l8.100000381469727,97.5 c0.10000000149011612,4.400000095367432 -0.8999999761581421,8.800000190734863 -2.9000000953674316,12.699999809265137 z" fill="#adbc55" id="svg_5" class=""/><path d="m69.11259090900421,242.6090850830078 l32.79999923706055,63.099998474121094 l-0.4000000059604645,0.20000000298023224 c-21.600000381469727,9.899999618530273 -47.20000076293945,0.5 -57.20000076293945,-21.100000381469727 c-6,-13 -5.099999904632568,-28.200000762939453 2.299999952316284,-40.400001525878906 l0.699999988079071,-2.799999952316284 c1.2999999523162842,0.30000001192092896 2.700000047683716,0.6000000238418579 4.099999904632568,0.8999999761581421 c5.900000095367432,1 11.899999618530273,1 17.700000762939453,0.10000000149011612 z" fill="#3b601c" id="svg_6" class=""/><path d="m49.51258862018585,280.30908203125 c-3.799999952316284,-3.5999999046325684 -6.800000190734863,-7.900000095367432 -9.100000381469727,-12.600000381469727 c0.5,23.799999237060547 20.100000381469727,42.70000076293945 43.900001525878906,42.20000076293945 c5.900000095367432,-0.10000000149011612 11.800000190734863,-1.5 17.100000381469727,-3.9000000953674316 l0.4000000059604645,-0.20000000298023224 l-8.199999809265137,-15.899999618530273 c-15.300000190734863,5.400000095367432 -32.400001525878906,1.7000000476837158 -44.099998474121094,-9.600000381469727 z" fill="#67a829" id="svg_7" class=""/><path d="m432.71257412433624,273.9090881347656 l-0.10000000149011612,0.30000001192092896 c-2.799999952316284,18.799999237060547 -20.299999237060547,31.899999618530273 -39.20000076293945,29.100000381469727 c-4.599999904632568,-0.699999988079071 -9,-2.299999952316284 -12.899999618530273,-4.699999809265137 l-0.10000000149011612,-0.10000000149011612 c8.5,-12.600000381469727 18.100000381469727,-25.700000762939453 29.200000762939453,-39.5 l0.30000001192092896,-0.30000001192092896 c5.800000190734863,7.400000095367432 13.699999809265137,12.800000190734863 22.799999237060547,15.199999809265137 z" fill="#3b601c" id="svg_8" class=""/><path d="m426.81258022785187,271.9090881347656 c-7.099999904632568,15.600000381469727 -24.600000381469727,23.5 -41,18.799999237060547 c-1.899999976158142,2.5999999046325684 -3.700000047683716,5.300000190734863 -5.400000095367432,7.900000095367432 l0.10000000149011612,0.10000000149011612 c16.299999237060547,9.899999618530273 37.5,4.800000190734863 47.400001525878906,-11.5 c2.4000000953674316,-3.9000000953674316 4,-8.300000190734863 4.699999809265137,-12.899999618530273 l0.10000000149011612,-0.30000001192092896 c-2.0999999046325684,-0.6000000238418579 -4,-1.2999999523162842 -5.900000095367432,-2.0999999046325684 z" fill="#67a829" id="svg_9" class=""/><path d="m167.81258022785187,213.40908813476562 c7.5,8.300000190734863 16.100000381469727,15.699999809265137 25.399999618530273,21.899999618530273 c-4.5,30 -42.70000076293945,45.20000076293945 -66.0999984741211,25.399999618530273 c-5.300000190734863,-10.300000190734863 -8.899999618530273,-17.399999618530273 -9.100000381469727,-17.799999237060547 c13,-0.4000000059604645 25.5,-5 35.599998474121094,-13.100000381469727 c5.800000190734863,-4.599999904632568 10.600000381469727,-10.100000381469727 14.199999809265137,-16.399999618530273 z" fill="#3b601c" id="svg_10" class=""/><path d="m184.11258327960968,228.6090850830078 c-13.5,20.700000762939453 -42.70000076293945,29.399999618530273 -64.80000305175781,16.600000381469727 c1.5,3 4.300000190734863,8.399999618530273 7.900000095367432,15.399999618530273 c23.399999618530273,19.799999237060547 61.5,4.699999809265137 66.0999984741211,-25.399999618530273 c-3.200000047683716,-2 -6.199999809265137,-4.199999809265137 -9.199999809265137,-6.599999904632568 z" fill="#315112" id="svg_11" class=""/><path d="m313.21257412433624,235.30908203125 l-23.399999618530273,50.29999923706055 c-18.200000762939453,8.899999618530273 -41.79999923706055,-1.5 -49.79999923706055,-13.300000190734863 l-3.5999999046325684,-20.299999237060547 c5.400000095367432,0.800000011920929 10.800000190734863,1.2000000476837158 16.200000762939453,1.2000000476837158 c21.5,0 42.5,-6.199999809265137 60.599998474121094,-17.899999618530273 z" fill="#4e7a25" id="svg_12" class=""/><path d="m246.31258022785187,254.40908813476562 l-0.20000000298023224,-1.399999976158142 c-3.299999952316284,-0.20000000298023224 -6.5,-0.5 -9.699999809265137,-1 l3.5999999046325684,20.299999237060547 c7.900000095367432,11.800000190734863 31.600000381469727,22.100000381469727 49.79999923706055,13.300000190734863 l5.699999809265137,-12.199999809265137 c-19.600000381469727,3.5999999046325684 -41.20000076293945,-7 -49.20000076293945,-19 z" fill="#2c4415" id="svg_13" class=""/><path d="m76.01259243488312,146.90908813476562 c-19.299999237060547,20.799999237060547 -21.399999618530273,52.70000076293945 -3.5,75 c4.400000095367432,5.5 9.899999618530273,10.100000381469727 16,13.600000381469727 c-11.100000381469727,6.599999904632568 -24.299999237060547,9.100000381469727 -37.099998474121094,6.900000095367432 c-1.399999976158142,-0.20000000298023224 -2.700000047683716,-0.5 -4.099999904632568,-0.8999999761581421 c-29.200000762939453,-7.300000190734863 -47,-36.900001525878906 -39.70000076293945,-66.0999984741211 c6.900000095367432,-27.700000762939453 33.900001525878906,-45.400001525878906 62.099998474121094,-40.599998474121094 l1.399999976158142,-0.4000000059604645 c1.100000023841858,4.400000095367432 2.799999952316284,8.600000381469727 4.900000095367432,12.5 z" fill="#3b601c" id="svg_14" class=""/><path d="m74.81259548664093,144.50909423828125 c-1.600000023841858,-3.200000047683716 -2.799999952316284,-6.5 -3.700000047683716,-9.899999618530273 l-1.399999976158142,0.4000000059604645 c-0.8999999761581421,-0.20000000298023224 -1.899999976158142,-0.30000001192092896 -2.799999952316284,-0.4000000059604645 c2.299999952316284,3.4000000953674316 5,6.800000190734863 7.900000095367432,9.899999618530273 z" fill="#67a829" id="svg_15" class=""/><path d="m73.01259243488312,222.50909423828125 c-32.29999923706055,-7.5 -54.70000076293945,-36.900001525878906 -53.20000076293945,-70.0999984741211 c-20,22.5 -18,57 4.5,77 c6.599999904632568,5.900000095367432 14.5,10 23.100000381469727,12.199999809265137 c1.2999999523162842,0.30000001192092896 2.700000047683716,0.6000000238418579 4.099999904632568,0.8999999761581421 c12.800000190734863,2.200000047683716 25.899999618530273,-0.30000001192092896 37.099998474121094,-6.900000095367432 c-6,-3.4000000953674316 -11.300000190734863,-7.800000190734863 -15.600000381469727,-13.100000381469727 z" fill="#67a829" id="svg_16" class=""/><path d="m402.4125863313675,244.50909423828125 c-10.800000190734863,4.400000095367432 -22.5,5.699999809265137 -34,3.700000047683716 c-2.200000047683716,-0.4000000059604645 -4.400000095367432,-0.8999999761581421 -6.599999904632568,-1.5 c-13.399999618530273,-3.700000047683716 -25.100000381469727,-11.800000190734863 -33.400001525878906,-22.799999237060547 l-0.20000000298023224,0.10000000149011612 c-4.699999809265137,4.099999904632568 -9.800000190734863,7.900000095367432 -15.100000381469727,11.300000190734863 c-18,11.699999809265137 -39.099998474121094,17.899999618530273 -60.599998474121094,18 c-5.400000095367432,0 -10.800000190734863,-0.4000000059604645 -16.200000762939453,-1.2000000476837158 c-15.399999618530273,-2.4000000953674316 -30.100000381469727,-8.100000381469727 -43.099998474121094,-16.799999237060547 c-9.399999618530273,-6.199999809265137 -17.899999618530273,-13.5 -25.399999618530273,-21.899999618530273 c-3.700000047683716,6.199999809265137 -8.5,11.800000190734863 -14.100000381469727,16.299999237060547 c-10.100000381469727,8.199999809265137 -22.600000381469727,12.800000190734863 -35.599998474121094,13.100000381469727 c-10.300000190734863,0.30000001192092896 -20.600000381469727,-2.200000047683716 -29.600000381469727,-7.300000190734863 c-6.199999809265137,-3.5 -11.600000381469727,-8.100000381469727 -16,-13.600000381469727 c-17.799999237060547,-22.200000762939453 -15.800000190734863,-54.099998474121094 3.5,-75 c-2.200000047683716,-3.9000000953674316 -3.799999952316284,-8.100000381469727 -5,-12.399999618530273 c-11.699999809265137,-44.20000076293945 31.899999618530273,-99.30000305175781 90.19999694824219,-67.5999984741211 c32.900001525878906,-88.0999984741211 154.60000610351562,-69.0999984741211 181.8000030517578,-7.599999904632568 c41.900001525878906,-20.600000381469727 86.80000305175781,21.799999237060547 71.0999984741211,54.900001525878906 h1.5 c34.79999923706055,0 63,28.200000762939453 63,63 c0,11 -2.9000000953674316,21.899999618530273 -8.399999618530273,31.399999618530273 c14.899999618530273,15.899999618530273 14.100000381469727,40.900001525878906 -1.7999999523162842,55.79999923706055 c-7.300000190734863,6.900000095367432 -17,10.699999809265137 -27,10.699999809265137 c-2.9000000953674316,0 -5.800000190734863,-0.4000000059604645 -8.699999809265137,-1.100000023841858 c-9,-2.5 -17,-7.800000190734863 -22.799999237060547,-15.199999809265137 c-3.4000000953674316,-4.300000190734863 -5.900000095367432,-9.100000381469727 -7.5,-14.300000190734863 z" fill="#4d841e" id="svg_17" class=""/><path d="m470.11259853839874,208.50909423828125 c13.199999809265137,-22.899999618530273 10.699999809265137,-51.5 -6.199999809265137,-71.80000305175781 c1.100000023841858,2.799999952316284 1.7999999523162842,5.599999904632568 2.299999952316284,8.600000381469727 c3.700000047683716,22.899999618530273 -11.699999809265137,44.400001525878906 -34.20000076293945,48 c-3,0.5 -6.099999904632568,0.6000000238418579 -9.199999809265137,0.30000001192092896 c-9.800000190734863,-1.100000023841858 -18.899999618530273,-5.400000095367432 -26.100000381469727,-12.199999809265137 c-1.2999999523162842,-1.2999999523162842 -2.5999999046325684,-2.5999999046325684 -3.799999952316284,-4 c-4.199999809265137,-5 -11.199999809265137,-6.800000190734863 -17.299999237060547,-4.400000095367432 c-7.5,2.799999952316284 -15.5,4.300000190734863 -23.600000381469727,4.199999809265137 c-2.4000000953674316,0 -4.699999809265137,-0.20000000298023224 -7.099999904632568,-0.4000000059604645 c-12.199999809265137,-1.5 -23.799999237060547,-6.300000190734863 -33.29999923706055,-14 c-0.8999999761581421,-0.699999988079071 -1.7000000476837158,-1.399999976158142 -2.5999999046325684,-2.200000047683716 c-1.399999976158142,-1.2000000476837158 -3.5,-1.100000023841858 -4.800000190734863,0.30000001192092896 c-3,3.299999952316284 -8.199999809265137,8.899999618530273 -11.5,11.899999618530273 c-16.700000762939453,15.199999809265137 -37.400001525878906,25.299999237060547 -59.599998474121094,28.899999618530273 c-5.599999904632568,0.8999999761581421 -11.300000190734863,1.399999976158142 -17,1.399999976158142 c-16.399999618530273,0 -32.599998474121094,-3.5999999046325684 -47.400001525878906,-10.5 c-5.800000190734863,-2.5999999046325684 -11.300000190734863,-5.699999809265137 -16.600000381469727,-9.100000381469727 c-6.800000190734863,-4.400000095367432 -15.899999618530273,-2.700000047683716 -20.600000381469727,3.9000000953674316 c-1.399999976158142,2 -3,4 -4.699999809265137,5.900000095367432 c-9,10.199999809265137 -21.200000762939453,17.100000381469727 -34.599998474121094,19.700000762939453 c-8.699999809265137,1.600000023841858 -17.600000381469727,1.2999999523162842 -26.100000381469727,-0.8999999761581421 c4.900000095367432,9.899999618530273 12.699999809265137,18.200000762939453 22.399999618530273,23.600000381469727 c9,5.099999904632568 19.299999237060547,7.599999904632568 29.600000381469727,7.300000190734863 c13,-0.4000000059604645 25.5,-5 35.599998474121094,-13.100000381469727 c5.699999809265137,-4.5 10.5,-10.100000381469727 14.100000381469727,-16.299999237060547 c7.5,8.300000190734863 16.100000381469727,15.699999809265137 25.399999618530273,21.899999618530273 c13,8.600000381469727 27.700000762939453,14.399999618530273 43.099998474121094,16.799999237060547 c5.400000095367432,0.800000011920929 10.800000190734863,1.2000000476837158 16.200000762939453,1.2000000476837158 c21.5,-0.10000000149011612 42.5,-6.300000190734863 60.599998474121094,-18 c5.300000190734863,-3.4000000953674316 10.300000190734863,-7.099999904632568 15.100000381469727,-11.300000190734863 l0.20000000298023224,-0.10000000149011612 c8.300000190734863,11.100000381469727 20.100000381469727,19.100000381469727 33.400001525878906,22.899999618530273 c2.200000047683716,0.6000000238418579 4.400000095367432,1.100000023841858 6.599999904632568,1.5 c11.5,1.899999976158142 23.200000762939453,0.6000000238418579 34,-3.700000047683716 c1.600000023841858,5.199999809265137 4.099999904632568,10 7.5,14.300000190734863 c5.699999809265137,7.400000095367432 13.699999809265137,12.699999809265137 22.799999237060547,15.199999809265137 c2.799999952316284,0.699999988079071 5.800000190734863,1.100000023841858 8.699999809265137,1.100000023841858 c21.799999237060547,0 39.5,-17.700000762939453 39.5,-39.5 c-0.10000000149011612,-10.399999618530273 -3.9000000953674316,-20 -10.800000190734863,-27.399999618530273 z" fill="#67a829" id="svg_18" class=""/><path d="m-331 216.9c4.7-9.5 7.2-20 7.2-30.6 0-35.7-27.3-65.2-62.2-68.6 3.2-14.6-2.1-30.8-14.7-43.2-16.8-16.6-40.5-21.7-61.8-13.8-8-14.8-21.2-27.3-38.5-36.5-18.3-9.7-40-14.7-60.9-14.1-19.7.6-38.1 6.1-53.3 15.9-15.4 10-27.2 24-35 41.7-22.7-10.4-45.1-9.5-63.8 2.6-20.6 13.3-33 38.8-31.1 63.5.1 1.2.2 2.3.4 3.5-30.3-1.6-57.7 19.7-62.9 50.3-4.9 29.1 11.8 56.9 38.5 66.8-6.4 13.1-6.6 28.5-.4 41.9 8.3 18 26.1 28.6 44.7 28.6 5.1 0 10.4-.8 15.4-2.5l82.3 159.2c6.8 13.2 20.2 21.3 34.9 21.3h.6l53.3-.8c16.4-.2 31.1-10.8 36.5-26.2 16.4-46.3 39.3-103.8 76.1-160.4 5 2.1 10.4 3.2 15.7 3.2 7.5 0 15.1-2.1 21.7-6.4 8.2-5.3 14.2-13.3 17-22.5 1.4.1 2.7.2 4.1.2 25.1 0 45.5-20.4 45.5-45.5.1-10-3.2-19.7-9.3-27.6zm-464.7-27.2c4.4-25.7 28.3-43.3 54-40 .7 1.9 1.4 3.7 2.2 5.5-8.7 10.7-13.9 23.9-14.6 37.6-.8 15.3 4 30.2 13.5 42.1 2.6 3.3 5.5 6.2 8.7 8.9-7.7 2.7-16 3.4-24.1 2-26.4-4.6-44.2-29.7-39.7-56.1zm37.1 101.7c-5-10.9-4.4-23.4 1.4-33.8 3.1.5 6.2.7 9.3.7 1.7 0 3.5-.1 5.2-.2l27.7 53.5c-17.2 4.8-35.9-3.5-43.6-20.2zm245.6 180.6c-3.8 10.7-14 18.1-25.4 18.2l-53.3.8c-.1 0-.3 0-.4 0-10.3 0-19.6-5.6-24.3-14.8l-114-220.4c3.6-1.1 7.2-2.5 10.6-4.3 6.7 3.3 14.1 5.5 21.9 6.2 1.3.1 2.6.2 4 .2 7.8 15.3 40.2 78.7 50.3 96.6 5 9 13 14.2 21.1 14.2 1.6 0 3.3-.2 4.9-.6 10.2-2.7 16.8-13 16.7-26.2 0-.2 0-.3 0-.5l-7.1-86c9.9 5.2 20.3 8.9 31 10.9l20.9 118.5c0 .3.1.5.2.7 3 9.5 8.2 12.3 12.1 12.9.7.1 1.4.2 2.1.2 4.7 0 9.7-2.5 15.1-7.4 3.9-3.6 6.7-7.4 6.8-7.6l.1-.1 83.1-119.7c2.4.3 4.8.4 7.2.4 6.8 0 13.5-1 20-3 1 2.2 2.2 4.4 3.5 6.4-55.6 70.3-86.4 146.1-107.1 204.4zm-126.7-240c5.7 5.7 11.7 10.7 17.9 15.1-2.8 10.4-10.9 19.2-21.9 23.3-11.6 4.3-23.7 2.7-32.8-4.5-1.7-3.4-3.2-6.3-4.5-8.8 10.8-1.8 21.1-6.4 30-13.5 4.3-3.5 8-7.4 11.3-11.6zm26.7 110.2c0 7.5-3.1 13.1-7.8 14.3-4.3 1.1-9.1-1.9-12.5-7.8-6.2-11.2-21.8-41.1-34.2-65.3 3.5.9 7.2 1.3 10.9 1.3 5.7 0 11.4-1 17.1-3.2 8.1-3 15-8 20.2-14.2zm132.6-100.3c8.4 9.1 19 15.8 30.8 19.3l-80.1 115.4c-4 5.4-10.1 10.4-12.3 10-.3-.1-1.5-1-2.6-4.3l-2.3-12.9 56.3-120.9c3.3-2.2 6.6-4.5 9.8-7.1.1.2.3.4.4.5zm-79.2 55c7.5 4.3 16.6 7.2 26 7.2 1.4 0 2.7-.1 4.1-.2l-20.9 44.9zm36.4-6.8c-14.4 5.7-32.8-2.2-39.6-11.1l-1.9-11c2.9.2 5.9.4 8.9.4 16.5 0 32.5-3.4 47.5-10.1zm128.6 12.2c-7.4 4.7-16.2 5.7-24.2 3 6.5-9.5 13.3-19 20.6-28.3 4.5 4.3 9.8 7.7 15.4 10-2 6.3-6.2 11.7-11.8 15.3zm27.5-24.2c-12.7 0-25.6-9.1-31.3-21.4 5.5-2.8 10.8-6.4 15.5-10.8 9-8.3 15.6-18.8 19.2-30.4 1-3.2-.8-6.5-4-7.5s-6.5.8-7.5 4c-2.9 9.6-8.4 18.2-15.8 25.1-5 4.6-10.7 8.2-16.8 10.8-.3.1-.5.2-.7.3-11.4 4.6-24.1 5.3-36.4 1.9-10.2-2.8-19.3-8.5-26.5-16.3-12.5-13.5-17.6-32.3-13.8-50.4 1.9-9.3 6.2-18 12.4-25.2.4-.2.7-.5 1-.8 2.4-2.2 2.6-6 .4-8.5l-.2-.2c-1.1-1.2-2.7-1.9-4.4-1.9-1.7 0-3.3.7-4.4 2-8.3 9-13.9 20.2-16.4 32.2-3.7 17.6-.3 35.9 9.1 50.9-20 16.1-43.4 24.5-67.8 24.5-28.6 0-55.3-12-77.4-34.8 5.8-11.7 8.1-25.1 6.1-38.2-.5-3.3-3.6-5.5-6.8-5-3.3.5-5.5 3.6-5 6.8 2.8 18.4-4.6 37.1-19.4 49-11 8.8-24.6 12.9-38.4 11.6-13.7-1.3-25.9-7.9-34.4-18.5-14-17.5-14.3-42.6-1.6-61.1 6.7 8.8 15.9 16 27.2 21 3 1.4 6.6 0 7.9-3s0-6.6-3-7.9c-19.4-8.6-30.9-24-32.4-43.3-1.6-20.5 8.6-41.6 25.5-52.5 16.5-10.7 36.9-10.4 57.5.8 1.5.8 3.3 1 5 .3 1.6-.6 2.9-1.9 3.5-3.5 12.9-34.5 42-54.9 79.9-56 39.5-1.2 77.8 19.3 90.8 48.8.7 1.5 1.9 2.7 3.4 3.2 1.5.6 3.2.5 4.7-.3 21.4-10.7 42.1-1.8 53.2 9.2 13.8 13.6 13.9 28.4 9.5 37.7-.9 1.9-.7 4.1.4 5.9 1.2 1.8 3.1 2.8 5.3 2.7h1.2c31.4 0 57 25.5 57 57 0 10-2.6 19.8-7.6 28.4-1.3 2.3-1 5.2.8 7.1 5.8 6.2 9.1 14.3 9.1 22.9-.1 18.4-15.1 33.4-33.6 33.4z" fill="#151515" id="svg_19"/><path d="m477.4125863313675,207.80908203125 c4.699999809265137,-9.5 7.199999809265137,-20 7.199999809265137,-30.600000381469727 c0,-35.70000076293945 -27.299999237060547,-65.19999694824219 -62.20000076293945,-68.5999984741211 c3.200000047683716,-14.600000381469727 -2.0999999046325684,-30.799999237060547 -14.699999809265137,-43.20000076293945 c-16.799999237060547,-16.600000381469727 -40.5,-21.700000762939453 -61.79999923706055,-13.800000190734863 c-8,-14.800000190734863 -21.200000762939453,-27.299999237060547 -38.5,-36.5 c-18.299999237060547,-9.699999809265137 -40,-14.699999809265137 -60.900001525878906,-14.100000381469727 c-19.700000762939453,0.6000000238418579 -38.099998474121094,6.099999904632568 -53.29999923706055,15.899999618530273 c-15.399999618530273,10 -27.200000762939453,24 -35,41.70000076293945 c-22.700000762939453,-10.399999618530273 -45.099998474121094,-9.5 -63.79999923706055,2.5999999046325684 c-20.600000381469727,13.300000190734863 -33,38.79999923706055 -31.100000381469727,63.5 c0.10000000149011612,1.2000000476837158 0.20000000298023224,2.299999952316284 0.4000000059604645,3.5 c-30.299999237060547,-1.600000023841858 -57.70000076293945,19.700000762939453 -62.900001525878906,50.29999923706055 c-4.900000095367432,29.100000381469727 11.800000190734863,56.900001525878906 38.5,66.80000305175781 c-6.400000095367432,13.100000381469727 -6.599999904632568,28.5 -0.4000000059604645,41.900001525878906 c8.300000190734863,18 26.100000381469727,28.600000381469727 44.70000076293945,28.600000381469727 c4.099999904632568,0 8.199999809265137,-0.5 12.300000190734863,-1.600000023841858 l71.5999984741211,153.89999389648438 c5.900000095367432,12.699999809265137 18.700000762939453,20.799999237060547 32.599998474121094,20.799999237060547 h0.4000000059604645 l86.4000015258789,-0.8999999761581421 c15.699999809265137,-0.20000000298023224 29.299999237060547,-10.300000190734863 34,-25.299999237060547 c1.5,-5 3.0999999046325684,-10.100000381469727 4.699999809265137,-15.300000190734863 c12.600000381469727,-41.20000076293945 27.5,-90.30000305175781 57.900001525878906,-140.60000610351562 c4.800000190734863,1.899999976158142 9.899999618530273,2.9000000953674316 14.899999618530273,2.9000000953674316 c7.5,0 15.100000381469727,-2.0999999046325684 21.700000762939453,-6.400000095367432 c8.199999809265137,-5.300000190734863 14.199999809265137,-13.300000190734863 17,-22.5 c1.399999976158142,0.10000000149011612 2.700000047683716,0.20000000298023224 4.099999904632568,0.20000000298023224 c25.100000381469727,0 45.5,-20.399999618530273 45.5,-45.5 c0.10000000149011612,-10.100000381469727 -3.200000047683716,-19.799999237060547 -9.300000190734863,-27.700000762939453 zm-464.70001220703125,-27.200000762939453 c4.400000095367432,-25.700000762939453 28.299999237060547,-43.29999923706055 54,-40 c0.699999988079071,1.899999976158142 1.399999976158142,3.700000047683716 2.200000047683716,5.5 c-8.699999809265137,10.699999809265137 -13.899999618530273,23.899999618530273 -14.600000381469727,37.599998474121094 c-0.800000011920929,15.300000190734863 4,30.200000762939453 13.5,42.099998474121094 c2.5999999046325684,3.299999952316284 5.5,6.199999809265137 8.699999809265137,8.899999618530273 c-7.699999809265137,2.700000047683716 -16,3.4000000953674316 -24.100000381469727,2 c-26.399999618530273,-4.599999904632568 -44.20000076293945,-29.700000762939453 -39.70000076293945,-56.099998474121094 zm37.099998474121094,101.69999694824219 c-5,-10.899999618530273 -4.400000095367432,-23.399999618530273 1.399999976158142,-33.79999923706055 c3.0999999046325684,0.5 6.199999809265137,0.699999988079071 9.300000190734863,0.699999988079071 c1.7000000476837158,0 3.299999952316284,-0.10000000149011612 5,-0.20000000298023224 l25.200000762939453,54.20000076293945 c-16.399999618530273,3.200000047683716 -33.599998474121094,-5 -40.900001525878906,-20.899999618530273 zm264.29998779296875,161.60000610351562 c-1.600000023841858,5.199999809265137 -3.0999999046325684,10.300000190734863 -4.699999809265137,15.300000190734863 c-3.0999999046325684,10 -12.199999809265137,16.799999237060547 -22.700000762939453,16.899999618530273 l-86.4000015258789,0.8999999761581421 c-0.10000000149011612,0 -0.20000000298023224,0 -0.30000001192092896,0 c-9.300000190734863,0 -17.799999237060547,-5.400000095367432 -21.799999237060547,-13.899999618530273 l-100.5,-216.39999389648438 c3.700000047683716,-1.100000023841858 7.400000095367432,-2.5999999046325684 10.899999618530273,-4.400000095367432 c6.699999809265137,3.299999952316284 14.100000381469727,5.5 21.899999618530273,6.199999809265137 c1.2999999523162842,0.10000000149011612 2.5999999046325684,0.20000000298023224 4,0.20000000298023224 c7.800000190734863,15.300000190734863 40.20000076293945,78.69999694824219 50.29999923706055,96.5999984741211 c5,9 13,14.199999809265137 21.100000381469727,14.199999809265137 c1.600000023841858,0 3.299999952316284,-0.20000000298023224 4.900000095367432,-0.6000000238418579 c10.199999809265137,-2.700000047683716 16.799999237060547,-13 16.700000762939453,-26.200000762939453 c0,-0.20000000298023224 0,-0.30000001192092896 0,-0.5 l-7.099999904632568,-86.0999984741211 c9.899999618530273,5.199999809265137 20.299999237060547,8.899999618530273 31,11 l17.799999237060547,100.9000015258789 c2.0999999046325684,11.899999618530273 12.300000190734863,20.200000762939453 24,20.200000762939453 c1.2000000476837158,0 2.299999952316284,-0.10000000149011612 3.5,-0.30000001192092896 c6.699999809265137,-1 12.699999809265137,-4.699999809265137 16.600000381469727,-10.199999809265137 l78.5,-113.0999984741211 c2.4000000953674316,0.30000001192092896 4.800000190734863,0.4000000059604645 7.199999809265137,0.4000000059604645 c6.800000190734863,0 13.5,-1 20,-3 c1,2.200000047683716 2.200000047683716,4.400000095367432 3.5,6.400000095367432 c-52,66.0999984741211 -72.0999984741211,132.1999969482422 -88.4000015258789,185.5 zm-149.39999389648438,-182.6999969482422 c-11.600000381469727,4.300000190734863 -23.700000762939453,2.700000047683716 -32.79999923706055,-4.5 c-1.7000000476837158,-3.4000000953674316 -3.200000047683716,-6.300000190734863 -4.5,-8.800000190734863 c10.800000190734863,-1.7999999523162842 21.100000381469727,-6.400000095367432 30,-13.5 c4.199999809265137,-3.4000000953674316 8,-7.300000190734863 11.199999809265137,-11.5 c5.699999809265137,5.699999809265137 11.699999809265137,10.699999809265137 17.899999618530273,15.100000381469727 c-2.799999952316284,10.399999618530273 -10.800000190734863,19.100000381469727 -21.799999237060547,23.200000762939453 zm24.5,-3 l6.199999809265137,74.80000305175781 c0,7.5 -3.0999999046325684,13.100000381469727 -7.800000190734863,14.300000190734863 c-4.300000190734863,1.100000023841858 -9.100000381469727,-1.899999976158142 -12.5,-7.800000190734863 c-6.199999809265137,-11.199999809265137 -21.799999237060547,-41.099998474121094 -34.20000076293945,-65.30000305175781 c3.5,0.8999999761581421 7.199999809265137,1.2999999523162842 10.899999618530273,1.2999999523162842 c5.699999809265137,0 11.399999618530273,-1 17.100000381469727,-3.200000047683716 c8.100000381469727,-2.9000000953674316 15,-7.800000190734863 20.299999237060547,-14.100000381469727 zm128.6999969482422,-18.799999237060547 c3.299999952316284,-2.200000047683716 6.599999904632568,-4.5 9.699999809265137,-7 c0.10000000149011612,0.20000000298023224 0.30000001192092896,0.30000001192092896 0.4000000059604645,0.5 c8.399999618530273,9.100000381469727 19,15.800000190734863 30.799999237060547,19.299999237060547 l-75.5999984741211,108.80000305175781 c-2,2.799999952316284 -5,4.699999809265137 -8.399999618530273,5.199999809265137 c-5.400000095367432,0.800000011920929 -10.5,-2 -12.899999618530273,-6.699999809265137 zm-60,100.30000305175781 l-9.199999809265137,-51.900001525878906 c7.5,4.300000190734863 16.600000381469727,7.199999809265137 26,7.199999809265137 c1.399999976158142,0 2.700000047683716,-0.10000000149011612 4.099999904632568,-0.20000000298023224 zm27.299999237060547,-58.70000076293945 c-14.399999618530273,5.699999809265137 -32.79999923706055,-2.200000047683716 -39.599998474121094,-11.100000381469727 l-1.899999976158142,-11 c2.9000000953674316,0.20000000298023224 5.900000095367432,0.4000000059604645 8.899999618530273,0.4000000059604645 c16.5,0 32.5,-3.5 47.5,-10.100000381469727 zm128.60000610351562,12.199999809265137 c-7.199999809265137,4.599999904632568 -15.800000190734863,5.699999809265137 -23.700000762939453,3.200000047683716 c6.099999904632568,-9.5 12.800000190734863,-19 20.200000762939453,-28.5 c4.5,4.300000190734863 9.800000190734863,7.699999809265137 15.399999618530273,9.899999618530273 c-2.0999999046325684,6.400000095367432 -6.300000190734863,11.800000190734863 -11.899999618530273,15.399999618530273 zm27.5,-24.200000762939453 c-12.699999809265137,0 -25.600000381469727,-9.100000381469727 -31.299999237060547,-21.399999618530273 c5.5,-2.799999952316284 10.800000190734863,-6.400000095367432 15.5,-10.800000190734863 c7.300000190734863,-6.699999809265137 13,-14.899999618530273 16.899999618530273,-24 c1.399999976158142,-3.299999952316284 -0.4000000059604645,-7.099999904632568 -3.9000000953674316,-8.100000381469727 c-2.9000000953674316,-0.800000011920929 -6,0.699999988079071 -7.199999809265137,3.5 c-3.0999999046325684,7.5 -7.900000095367432,14.199999809265137 -13.899999618530273,19.799999237060547 c-14.600000381469727,13.5 -34.79999923706055,18.299999237060547 -54,13 c-10.199999809265137,-2.799999952316284 -19.299999237060547,-8.5 -26.5,-16.299999237060547 c-12.5,-13.5 -17.600000381469727,-32.29999923706055 -13.800000190734863,-50.400001525878906 c1.600000023841858,-7.800000190734863 4.900000095367432,-15.100000381469727 9.5,-21.5 c1.600000023841858,-2.200000047683716 1.600000023841858,-5.099999904632568 0,-7.199999809265137 c-2.4000000953674316,-3.200000047683716 -7.300000190734863,-3.200000047683716 -9.600000381469727,0 c-5.699999809265137,7.800000190734863 -9.600000381469727,16.700000762939453 -11.600000381469727,26.200000762939453 c-3.700000047683716,17.600000381469727 -0.30000001192092896,35.900001525878906 9.100000381469727,50.900001525878906 c-20,16.100000381469727 -43.400001525878906,24.5 -67.80000305175781,24.5 c-28.600000381469727,0 -55.29999923706055,-12 -77.4000015258789,-34.79999923706055 c4.800000190734863,-9.699999809265137 7.199999809265137,-20.600000381469727 6.699999809265137,-31.5 c-0.20000000298023224,-3.5999999046325684 -3.4000000953674316,-6.300000190734863 -6.900000095367432,-5.699999809265137 c-3.0999999046325684,0.5 -5.199999809265137,3.200000047683716 -5.099999904632568,6.300000190734863 c0.800000011920929,16.600000381469727 -6.599999904632568,32.900001525878906 -20,43.599998474121094 c-11,8.800000190734863 -24.600000381469727,12.899999618530273 -38.400001525878906,11.600000381469727 c-13.699999809265137,-1.2999999523162842 -25.899999618530273,-7.900000095367432 -34.400001525878906,-18.5 c-14,-17.5 -14.300000190734863,-42.599998474121094 -1.600000023841858,-61.099998474121094 c6.699999809265137,8.800000190734863 15.899999618530273,16 27.200000762939453,21 c3,1.399999976158142 6.599999904632568,0 7.900000095367432,-3 s0,-6.599999904632568 -3,-7.900000095367432 c-19.399999618530273,-8.600000381469727 -30.899999618530273,-24 -32.400001525878906,-43.29999923706055 c-1.600000023841858,-20.5 8.600000381469727,-41.599998474121094 25.5,-52.5 c16.5,-10.699999809265137 36.900001525878906,-10.399999618530273 57.5,0.800000011920929 c1.5,0.800000011920929 3.299999952316284,1 5,0.30000001192092896 c1.600000023841858,-0.6000000238418579 2.9000000953674316,-1.899999976158142 3.5,-3.5 c12.899999618530273,-34.5 42,-54.900001525878906 79.9000015258789,-56 c39.5,-1.2000000476837158 77.80000305175781,19.299999237060547 90.80000305175781,48.79999923706055 c0.699999988079071,1.5 1.899999976158142,2.700000047683716 3.4000000953674316,3.200000047683716 c1.5,0.6000000238418579 3.200000047683716,0.5 4.699999809265137,-0.30000001192092896 c21.799999237060547,-10.699999809265137 42.5,-1.7999999523162842 53.599998474121094,9.199999809265137 c13.800000190734863,13.600000381469727 13.899999618530273,28.399999618530273 9.5,37.70000076293945 c-0.8999999761581421,1.899999976158142 -0.699999988079071,4.099999904632568 0.4000000059604645,5.900000095367432 c1.2000000476837158,1.7999999523162842 3.0999999046325684,2.799999952316284 5.300000190734863,2.700000047683716 h1.2000000476837158 c31.399999618530273,0 57,25.5 57,57 c0,10 -2.5999999046325684,19.799999237060547 -7.599999904632568,28.399999618530273 c-1.2999999523162842,2.299999952316284 -1,5.199999809265137 0.800000011920929,7.099999904632568 c5.800000190734863,6.199999809265137 9.100000381469727,14.300000190734863 9.100000381469727,22.899999618530273 c-0.10000000149011612,18.399999618530273 -15.100000381469727,33.400001525878906 -33.599998474121094,33.400001525878906 z" id="svg_20" class=""/></g></svg>