<?xml version="1.0"?>
<svg xmlns="http://www.w3.org/2000/svg" viewBox="0 0 64 64" width="512" height="512"><g id="frying_pan" data-name="frying pan"><path d="M61,25v2a2.006,2.006,0,0,1-2,2H53.5a21.8,21.8,0,0,0,1.41-6.01L55,23h4A2.006,2.006,0,0,1,61,25Z" style="fill:#00d7df"/><path d="M9,21H55c0,.67-.03,1.34-.09,1.99A21.986,21.986,0,0,1,33,43H31A21.974,21.974,0,0,1,9.09,22.99C9.03,22.34,9,21.67,9,21Z" style="fill:#e0e0e2"/><polygon points="47 57 47 61 17 61 17 57 17 55 47 55 47 57" style="fill:#ffe477"/><path d="M46,51a2,2,0,0,1-4,0c0-1.1,2-4,2-4S46,49.9,46,51Z" style="fill:#ff3051"/><path d="M38,51a2,2,0,0,1-4,0c0-1.1,2-4,2-4S38,49.9,38,51Z" style="fill:#ff3051"/><path d="M30,51a2,2,0,0,1-4,0c0-1.1,2-4,2-4S30,49.9,30,51Z" style="fill:#ff3051"/><path d="M22,51a2,2,0,0,1-4,0c0-1.1,2-4,2-4S22,49.9,22,51Z" style="fill:#ff3051"/><path d="M10.5,29H5a2.006,2.006,0,0,1-2-2V25a2.006,2.006,0,0,1,2-2H9l.09-.01A21.8,21.8,0,0,0,10.5,29Z" style="fill:#00d7df"/><path d="M22,18h2a3.42,3.42,0,0,1,1.243-2.331A5.313,5.313,0,0,0,27,12a3.907,3.907,0,0,0-1.886-3.29C24.361,8.125,24,7.809,24,7s.361-1.125,1.114-1.711A3.906,3.906,0,0,0,27,2H25c0,.808-.361,1.125-1.114,1.711A3.906,3.906,0,0,0,22,7a3.907,3.907,0,0,0,1.886,3.29c.753.585,1.114.9,1.114,1.71a3.42,3.42,0,0,1-1.243,2.331A5.313,5.313,0,0,0,22,18Z"/><path d="M30,18h2a3.42,3.42,0,0,1,1.243-2.331A5.313,5.313,0,0,0,35,12a3.907,3.907,0,0,0-1.886-3.29C32.361,8.125,32,7.809,32,7s.361-1.125,1.114-1.711A3.906,3.906,0,0,0,35,2H33c0,.808-.361,1.125-1.114,1.711A3.906,3.906,0,0,0,30,7a3.907,3.907,0,0,0,1.886,3.29c.753.585,1.114.9,1.114,1.71a3.42,3.42,0,0,1-1.243,2.331A5.313,5.313,0,0,0,30,18Z"/><path d="M38,18h2a3.42,3.42,0,0,1,1.243-2.331A5.313,5.313,0,0,0,43,12a3.907,3.907,0,0,0-1.886-3.29C40.361,8.125,40,7.809,40,7s.361-1.125,1.114-1.711A3.906,3.906,0,0,0,43,2H41c0,.808-.361,1.125-1.114,1.711A3.906,3.906,0,0,0,38,7a3.907,3.907,0,0,0,1.886,3.29c.753.585,1.114.9,1.114,1.71a3.42,3.42,0,0,1-1.243,2.331A5.313,5.313,0,0,0,38,18Z"/><path d="M49.577,24.778A17.128,17.128,0,0,1,33,38H31v2h2A19.139,19.139,0,0,0,51.526,25.222Z"/><path d="M23,51c0-1.278-1.522-3.621-2.177-4.568a1.038,1.038,0,0,0-1.646,0C18.522,47.379,17,49.722,17,51a3,3,0,0,0,6,0Zm-3,1a1,1,0,0,1-1-1,7.457,7.457,0,0,1,1-2.147A7.462,7.462,0,0,1,21,51,1,1,0,0,1,20,52Z"/><path d="M31,51c0-1.278-1.522-3.621-2.177-4.568a1.038,1.038,0,0,0-1.646,0C26.522,47.379,25,49.722,25,51a3,3,0,0,0,6,0Zm-3,1a1,1,0,0,1-1-1,7.457,7.457,0,0,1,1-2.147A7.462,7.462,0,0,1,29,51,1,1,0,0,1,28,52Z"/><path d="M39,51c0-1.278-1.522-3.621-2.177-4.568a1.038,1.038,0,0,0-1.646,0C34.522,47.379,33,49.722,33,51a3,3,0,0,0,6,0Zm-3,1a1,1,0,0,1-1-1,7.457,7.457,0,0,1,1-2.147A7.462,7.462,0,0,1,37,51,1,1,0,0,1,36,52Z"/><path d="M47,51c0-1.278-1.522-3.621-2.177-4.568a1.038,1.038,0,0,0-1.646,0C42.522,47.379,41,49.722,41,51a3,3,0,0,0,6,0Zm-3,1a1,1,0,0,1-1-1,7.515,7.515,0,0,1,1-2.147A7.443,7.443,0,0,1,45,51,1,1,0,0,1,44,52Z"/><path d="M52,50H49v2h2v4H48V55a1,1,0,0,0-1-1H17a1,1,0,0,0-1,1v1H13V52h2V50H12a1,1,0,0,0-1,1v6a1,1,0,0,0,1,1h4v3a1,1,0,0,0,1,1H47a1,1,0,0,0,1-1V58h4a1,1,0,0,0,1-1V51A1,1,0,0,0,52,50ZM46,60H18V56H46Z"/><path d="M59,22H55.975c.014-.332.025-.665.025-1a1,1,0,0,0-1-1H9a1,1,0,0,0-1,1c0,.335.011.668.025,1H5a3,3,0,0,0-3,3v2a3,3,0,0,0,3,3H9.836A23.033,23.033,0,0,0,31,44h2A23.033,23.033,0,0,0,54.164,30H59a3,3,0,0,0,3-3V25A3,3,0,0,0,59,22ZM5,28a1,1,0,0,1-1-1V25a1,1,0,0,1,1-1H8.2a22.77,22.77,0,0,0,.891,4ZM33,42H31A21.027,21.027,0,0,1,10.023,22H53.977A21.027,21.027,0,0,1,33,42ZM60,27a1,1,0,0,1-1,1H54.907a22.77,22.77,0,0,0,.891-4H59a1,1,0,0,1,1,1Z"/></g></svg>
