<svg id="Capa_1" enable-background="new 0 0 512 512" height="512" viewBox="0 0 512 512" width="512" xmlns="http://www.w3.org/2000/svg"><g><g><path d="m435.913 492.53h-359.826c-8.297 0-15.022-6.716-15.022-15v-49.9l194.935-8.96 194.935 8.96v49.9c0 8.284-6.726 15-15.022 15z" fill="#3c5c90"/><path d="m256 418.67v73.86h179.913c8.297 0 15.022-6.716 15.022-15v-49.9z" fill="#283d5e"/></g><g><g><g><path d="m512 147.212-256 10-256-10v-112.742c0-8.284 6.716-15 15-15h482c8.284 0 15 6.716 15 15z" fill="#3c5c90"/><path d="m496.978 19.665h-240.978v137.548l256-10v-112.548c0-8.285-6.726-15-15.022-15z" fill="#283d5e"/></g><g><path d="m346.129 106.67c-6.427 0-12.22-4.225-14.257-10.293-2.033-6.057.175-12.962 5.316-16.753 4.725-3.484 11.17-3.876 16.292-1.022 5.428 3.025 8.474 9.328 7.477 15.455-1.169 7.17-7.545 12.613-14.828 12.613z" fill="#e9e4f0"/><path d="m286.039 106.67c-6.294 0-11.998-4.053-14.136-9.946-2.132-5.876-.238-12.701 4.612-16.654 4.884-3.98 11.831-4.451 17.242-1.26 5.388 3.177 8.244 9.677 7.014 15.79-1.393 6.926-7.651 12.07-14.732 12.07z" fill="#e9e4f0"/><g fill="#fbf4f4"><path d="m225.949 106.67c-6.296 0-11.998-4.051-14.136-9.946-2.135-5.883-.232-12.69 4.612-16.654 4.869-3.984 11.844-4.445 17.242-1.26 5.386 3.178 8.244 9.678 7.014 15.79-1.393 6.926-7.651 12.07-14.732 12.07z"/><path d="m165.859 106.67c-6.295 0-11.998-4.052-14.136-9.946-2.132-5.876-.235-12.701 4.612-16.654 4.879-3.98 11.836-4.45 17.242-1.26 5.389 3.18 8.244 9.675 7.014 15.79-1.393 6.927-7.65 12.07-14.732 12.07z"/></g></g></g><g><g><path d="m497 427.63h-482c-8.284 0-15-6.716-15-15v-265.418h512v265.418c0 8.284-6.716 15-15 15z" fill="#e9e4f0"/><path d="m256 147.212v280.418h240.978c8.297 0 15.022-6.716 15.022-15v-265.418z" fill="#d3cee2"/></g><g><g><path d="m63.869 348.856v-122.87c0-8.284 6.716-15 15-15h354.261c8.284 0 15 6.716 15 15v122.87c0 8.284-6.716 15-15 15h-354.261c-8.284 0-15-6.715-15-15z" fill="#ecb84f"/><path d="m433.108 210.986h-177.108v152.87h177.108c8.297 0 15.022-6.716 15.022-15v-122.87c.001-8.284-6.725-15-15.022-15z" fill="#e28658"/></g><g><path d="m289.872 311.716c-3.845 0-7.689-1.464-10.622-4.393-5.867-5.858-5.867-15.355 0-21.213l22.391-22.358c5.866-5.857 15.378-5.858 21.245-.001 5.867 5.858 5.867 15.355 0 21.213l-22.391 22.358c-2.934 2.929-6.779 4.394-10.623 4.394z" fill="#e9e4f0"/><path d="m199.737 311.716c-3.845 0-7.689-1.464-10.622-4.393-5.867-5.858-5.867-15.355 0-21.213l22.392-22.358c5.866-5.858 15.379-5.858 21.245 0 5.867 5.858 5.867 15.355 0 21.213l-22.392 22.358c-2.934 2.929-6.779 4.393-10.623 4.393z" fill="#fbf4f4"/></g></g></g></g></g></svg>